<?xml version="1.0" encoding="UTF-8" standalone="no"?>
<!-- Created with Inkscape (http://www.inkscape.org/) -->

<svg
   version="1.1"
   id="svg176"
   width="683.42877"
   height="131.29866"
   viewBox="0 0 683.42877 131.29866"
   sodipodi:docname="web_suite.svg"
   inkscape:version="1.2.2 (b0a8486, 2022-12-01)"
   xmlns:inkscape="http://www.inkscape.org/namespaces/inkscape"
   xmlns:sodipodi="http://sodipodi.sourceforge.net/DTD/sodipodi-0.dtd"
   xmlns="http://www.w3.org/2000/svg"
   xmlns:svg="http://www.w3.org/2000/svg">
  <defs
     id="defs180">
    <clipPath
       clipPathUnits="userSpaceOnUse"
       id="clipPath192">
      <path
         d="M 0,98.473 H 533.058 V 0 H 0 Z"
         id="path190" />
    </clipPath>
  </defs>
  <sodipodi:namedview
     id="namedview178"
     pagecolor="#505050"
     bordercolor="#eeeeee"
     borderopacity="1"
     inkscape:showpageshadow="0"
     inkscape:pageopacity="0"
     inkscape:pagecheckerboard="0"
     inkscape:deskcolor="#505050"
     showgrid="false"
     inkscape:zoom="1.8811273"
     inkscape:cx="247.458"
     inkscape:cy="188.98242"
     inkscape:window-width="1850"
     inkscape:window-height="1136"
     inkscape:window-x="70"
     inkscape:window-y="27"
     inkscape:window-maximized="1"
     inkscape:current-layer="g184">
    <inkscape:page
       x="0"
       y="0"
       id="page182"
       width="683.42877"
       height="131.29866" />
  </sodipodi:namedview>
  <g
     id="g184"
     inkscape:groupmode="layer"
     inkscape:label="Page 1"
     transform="matrix(1.3333333,0,0,-1.3333333,2.6666666e-4,131.29853)">
    <g
       id="g194"
       transform="translate(49.5118,0.94689752)">
      <path
         d="m 0,0 c 0.17,11.344 8.86,20.633 19.945,21.758 l 2.218,0.113 0.113,0.025 h 6.959 c 9.329,0.008 16.878,7.525 16.935,16.806 h 5.316 C 51.462,32.609 48.978,27.098 44.981,23.093 l -1.449,-1.197 6.983,0.008 c 9.321,0 16.871,7.517 16.928,16.798 h 5.316 C 72.726,32.609 70.242,27.099 66.253,23.093 l -1.464,-1.197 h 5.777 c 11.134,0 20.172,9.03 20.172,20.164 0,11.125 -9.038,20.164 -20.172,20.164 -5.761,0 -10.964,-2.42 -14.637,-6.312 -0.025,-0.024 -0.041,-0.04 -0.065,-0.065 l -3.763,3.763 c 2.314,2.427 5.106,4.41 8.262,5.802 l -0.397,2.743 C 57.134,81.878 44.973,92.211 30.416,92.211 13.764,92.211 0.235,78.69 0.235,62.029 0.235,45.668 13.286,32.334 29.534,31.864 V 26.548 C 11.563,26.985 -3.107,40.797 -4.895,58.404 l -0.049,1.02 -0.437,0.307 c -4.102,4.337 -9.896,7.04 -16.328,7.04 -12.405,0 -22.487,-10.074 -22.487,-22.486 0,-11.636 8.861,-21.216 20.189,-22.365 l 1.982,-0.105 -1.367,1.132 c -4.022,4.014 -6.514,9.573 -6.514,15.706 v 0.048 h 5.316 v -0.048 c 0,-8.156 5.802,-14.977 13.497,-16.555 l 2.953,-0.3 h 8.448 v -5.316 h -7.776 l -0.227,-0.048 -0.898,0.048 h -13.116 c -15.342,0 -27.803,12.461 -27.803,27.803 0,15.349 12.461,27.802 27.803,27.802 5.963,0 11.498,-1.885 16.021,-5.081 l 0.89,-0.705 0.445,2.881 c 3.309,16.167 17.623,28.345 34.769,28.345 17.13,0 31.428,-12.154 34.753,-28.296 l 0.356,-2.209 2.347,0.372 c 0.89,0.097 1.788,0.145 2.694,0.145 14.071,0 25.488,-11.417 25.488,-25.48 0,-14.071 -11.417,-25.48 -25.488,-25.48 L 22.268,16.563 C 12.987,16.555 5.478,9.143 5.316,-0.049 V -0.947 H 0 V 0"
         style="fill:#2794d8;fill-opacity:1;fill-rule:nonzero;stroke:none"
         id="path196" />
    </g>
    <g
       id="g494"
       style="display:inline"
       transform="matrix(0.94443213,0,0,0.94476618,6.5001335,3.786994)">
      <g
         id="g853">
        <g
           id="g198"
           transform="matrix(1.0003516,0,0,0.9999979,166.82932,55.680777)">
          <path
             d="M 0,0 V -1.494 H -4.086 V -4.869 H 0 V -32.78 h 3.434 v 27.911 h 8.058 v 3.375 H 3.434 v 1.32 c 0,5.546 2.489,8.199 7.413,7.915 l 0.645,-0.04 v 3.191 L 10.939,10.94 C 4.193,11.557 0,7.23 0,0"
             style="fill:#ffffff;fill-opacity:1;fill-rule:nonzero;stroke:none"
             id="path200" />
        </g>
        <path
           d="m 179.292,22.901 h 3.376 v 44.66 h -3.376 z"
           style="fill:#ffffff;fill-opacity:1;fill-rule:nonzero;stroke:none"
           id="path202"
           transform="matrix(1.0003516,0,0,0.9999979,2.4867596,9.4024459e-5)" />
        <path
           d="m 187.932,58.054 h 3.378 v 6.583 h -3.378 z"
           style="fill:#2794d8;fill-opacity:1;fill-rule:nonzero;stroke:none"
           id="path204"
           transform="matrix(1.0003516,0,0,0.9999979,2.4867596,9.4024459e-5)" />
        <path
           d="m 187.932,22.901 h 3.378 v 31.286 h -3.378 z"
           style="fill:#ffffff;fill-opacity:1;fill-rule:nonzero;stroke:none"
           id="path206"
           transform="matrix(1.0003516,0,0,0.9999979,2.4867596,9.4024459e-5)" />
        <g
           id="g208"
           transform="matrix(1.0003516,0,0,0.9999979,213.17411,25.57604)">
          <path
             d="m 0,0 c -6.748,0 -12.237,5.776 -12.237,12.882 0,7.196 5.489,13.05 12.237,13.05 7.056,0 12.179,-5.488 12.179,-13.05 C 12.179,5.417 7.056,0 0,0 M 12.179,23.133 C 9.409,27.075 4.999,29.37 0,29.37 c -8.609,0 -15.613,-7.395 -15.613,-16.488 0,-9 7.004,-16.318 15.613,-16.318 4.99,0 9.402,2.283 12.179,6.198 v -4.013 c 0,-7.753 -4.735,-12.764 -12.062,-12.764 -5.473,0 -9.543,2.662 -11.161,7.302 l -0.144,0.409 h -3.519 l 0.229,-0.782 c 1.885,-6.451 7.342,-10.305 14.595,-10.305 9.234,0 15.438,6.486 15.438,16.14 v 29.862 h -3.376 z"
             style="fill:#ffffff;fill-opacity:1;fill-rule:nonzero;stroke:none"
             id="path210" />
        </g>
        <g
           id="g212"
           transform="matrix(1.0003516,0,0,0.9999979,247.81379,54.945779)">
          <path
             d="m 0,0 c -4.166,0 -7.807,-1.639 -10.249,-4.554 v 17.169 h -3.379 v -44.66 h 3.379 v 18.77 c 0,5.676 4.383,9.957 10.193,9.957 6.16,0 9.551,-3.536 9.551,-9.957 v -18.77 h 3.378 v 18.77 C 12.873,-5.087 7.94,0 0,0"
             style="fill:#ffffff;fill-opacity:1;fill-rule:nonzero;stroke:none"
             id="path214" />
        </g>
        <g
           id="g216"
           transform="matrix(1.0003516,0,0,0.9999979,278.09933,50.811988)">
          <path
             d="m 0,0 v 3.375 h -8.116 v 6.421 h -3.376 V 3.375 h -4.087 V 0 h 4.087 v -16.91 c 0,-3.278 0.878,-6.039 2.539,-7.983 1.717,-2.008 4.202,-3.073 7.186,-3.073 0.393,0 0.8,0.02 1.213,0.058 L 0,-27.861 v 3.175 l -0.633,-0.026 c -0.172,-0.008 -0.338,-0.011 -0.504,-0.011 -5.768,0 -6.979,4.251 -6.979,7.813 V 0 Z"
             style="fill:#ffffff;fill-opacity:1;fill-rule:nonzero;stroke:none"
             id="path218" />
        </g>
      </g>
      <g
         id="g220"
         transform="translate(306.2882,43.8387)">
        <path
           d="m 0,0 c -0.984,-3.543 -2.085,-7.453 -3.064,-10.997 -0.726,-2.628 -1.474,-5.25 -2.142,-7.893 -0.205,-0.809 -0.25,-1.043 -0.25,-1.043 h -8.091 c 0,0 -0.096,0.347 -0.459,1.541 -2.66,8.746 -5.402,17.466 -8.115,26.196 -0.251,0.807 -0.479,1.622 -0.762,2.58 2.555,0 8.066,-0.045 8.066,-0.045 0,0 0.166,-0.654 0.281,-1.095 1.54,-5.913 3.015,-11.842 4.509,-17.766 0.134,-0.529 0.391,-1.41 0.632,-2.267 0.287,0.589 0.401,1.248 0.489,1.58 1.618,6.101 3.244,12.2 4.804,18.315 0.241,0.944 0.333,1.308 0.333,1.308 l 7.674,-0.006 c 0,0 0.116,-0.366 0.355,-1.295 1.56,-6.065 3.178,-12.114 4.784,-18.166 0.166,-0.476 0.38,-1.105 0.574,-1.697 1.722,6.84 3.568,14.153 5.306,21.057 h 8.075 C 22.561,8.816 22.164,7.38 21.719,5.959 19.188,-2.135 16.623,-10.219 14.13,-18.325 c -0.374,-1.215 -0.457,-1.591 -0.457,-1.591 l -8.051,-0.017 c 0,0 -0.049,0.237 -0.335,1.322 C 3.794,-12.946 2.185,-7.313 0.613,-1.669 0.492,-1.235 0.407,-1.014 0.27,-0.584 0.175,-0.341 0.105,-0.004 0,0"
           style="fill:#ffffff;fill-opacity:1;fill-rule:nonzero;stroke:none"
           id="path222" />
      </g>
      <g
         id="g224"
         transform="translate(391.4511,38.1976)">
        <path
           d="m 0,0 c 0.167,5.596 -2.647,8.472 -6.382,9.361 -3.382,0.806 -6.87,-1.015 -8.581,-4.478 -1.735,-3.513 -0.934,-8.148 1.88,-10.593 2.424,-2.107 5.906,-2.617 8.307,-1.469 C -1.523,-5.652 -0.19,-3.289 0,0 m -15.927,29.727 c 0,-5.422 0.052,-11.225 0.052,-16.76 0.315,0.506 0.589,0.702 0.756,0.845 6.073,5.19 16.486,3.519 20.869,-5.154 3.489,-6.904 1.896,-15.479 -3.788,-20.354 -4.938,-4.235 -12.073,-4.35 -17.144,-0.281 -0.262,0.21 -0.556,0.377 -1.064,0.718 v -2.914 h -7.216 v 43.9 z"
           style="fill:#ffffff;fill-opacity:1;fill-rule:nonzero;stroke:none"
           id="path226" />
      </g>
      <g
         id="g228"
         transform="translate(354.4077,42.5741)">
        <path
           d="M 0,0 C -0.142,2.73 -3.43,6.026 -7.575,5.922 -11.108,5.834 -14.377,3.268 -14.844,0 Z M 7.746,-6.503 H -15.08 c 0.202,-1.72 1.047,-2.938 2.133,-3.97 3.254,-3.093 8.641,-2.671 11.454,0.826 0.257,0.32 0.532,0.822 0.532,0.822 0,0 5.804,-0.024 8.297,-0.034 -0.646,-6.239 -8.922,-11.299 -16.443,-10.394 -8.674,1.044 -15.025,9.324 -13.785,17.975 1.266,8.834 9.292,15.13 17.58,13.879 C 4.831,11.071 8.804,1.738 7.746,-6.503"
           style="fill:#ffffff;fill-opacity:1;fill-rule:nonzero;stroke:none"
           id="path230" />
      </g>
      <g
         id="g533"
         transform="matrix(1.0216827,0,0,1.0216827,-8.7690427,-0.82532659)">
        <g
           id="g232"
           transform="translate(433.5221,55.4782)">
          <path
             d="m 0,0 c 0,0 -0.106,5.571 -5.335,8.822 -3.344,2.079 -11.027,3.088 -16.358,-0.262 -2.468,-1.55 -5.252,-4.865 -4.196,-9.894 1.156,-5.504 8.796,-6.696 12.874,-7.888 3.94,-1.151 10.992,-2.304 12.95,-5.714 1.557,-2.712 2.256,-8.115 -1.586,-11.869 -5.066,-4.95 -14.49,-4.93 -20.346,-1.463 -5.4,3.197 -5.399,9.864 -5.399,9.864"
             style="fill:none;stroke:#2794d8;stroke-width:3.4;stroke-linecap:butt;stroke-linejoin:miter;stroke-miterlimit:10;stroke-dasharray:none;stroke-opacity:1"
             id="path234" />
        </g>
        <g
           id="g236"
           transform="translate(466.8618,23.8509)">
          <path
             d="M 0,0 V 31.422"
             style="fill:none;stroke:#2794d8;stroke-width:3.4;stroke-linecap:butt;stroke-linejoin:miter;stroke-miterlimit:10;stroke-dasharray:none;stroke-opacity:1"
             id="path238" />
        </g>
        <g
           id="g240"
           transform="translate(442.8778,55.2731)">
          <path
             d="m 0,0 v -19.502 c 0,-7.64 6.245,-11.009 12.354,-10.999 6.033,0.01 11.517,3.738 11.614,10.755 C 24.041,-14.463 23.984,0 23.984,0"
             style="fill:none;stroke:#2794d8;stroke-width:3.4;stroke-linecap:butt;stroke-linejoin:miter;stroke-miterlimit:10;stroke-dasharray:none;stroke-opacity:1"
             id="path242" />
        </g>
        <path
           d="m 473.882,23.851 h 3.398 v 31.466 h -3.398 z"
           style="fill:#2794d8;fill-opacity:1;fill-rule:nonzero;stroke:none"
           id="path244" />
        <path
           d="m 473.882,59.207 h 3.398 v 6.621 h -3.398 z"
           style="fill:#2794d8;fill-opacity:1;fill-rule:nonzero;stroke:none"
           id="path246" />
        <g
           id="g248"
           transform="translate(497.5136,52.1985)">
          <path
             d="m 0,0 v 3.394 h -8.163 v 6.458 h -3.396 V 3.394 h -4.11 V 0 h 4.11 v -17.008 c 0,-3.297 0.884,-6.073 2.554,-8.028 1.727,-2.021 4.227,-3.092 7.228,-3.092 0.395,0 0.804,0.021 1.22,0.059 L 0,-28.022 v 3.194 l -0.637,-0.026 c -0.172,-0.008 -0.34,-0.012 -0.507,-0.012 -5.801,0 -7.019,4.276 -7.019,7.858 V 0 Z"
             style="fill:#2794d8;fill-opacity:1;fill-rule:nonzero;stroke:none"
             id="path250" />
        </g>
        <g
           id="g252"
           transform="translate(530.8029,34.5276)">
          <path
             d="m 0,0 c -0.792,-3.367 -4.863,-9.779 -13.098,-9.773 -9.506,0.007 -15.892,7.135 -15.892,15.731 0,8.596 6.543,15.601 14.764,15.601 7.544,0 15.007,-6.058 14.776,-15.829"
             style="fill:none;stroke:#2794d8;stroke-width:3.4;stroke-linecap:butt;stroke-linejoin:miter;stroke-miterlimit:10;stroke-dasharray:none;stroke-opacity:1"
             id="path254" />
        </g>
        <g
           id="g256"
           transform="translate(502.0102,41.9662)">
          <path
             d="M 0,0 H 29.343"
             style="fill:none;stroke:#2794d8;stroke-width:3.4;stroke-linecap:butt;stroke-linejoin:miter;stroke-miterlimit:10;stroke-dasharray:none;stroke-opacity:1"
             id="path258" />
        </g>
      </g>
    </g>
  </g>
</svg>
